<svg width="21" height="21" viewBox="0 0 21 21" fill="none" xmlns="http://www.w3.org/2000/svg">
<path fill-rule="evenodd" clip-rule="evenodd" d="M0 10.5C0 10.8978 0.138264 11.2792 0.384378 11.5605C0.630492 11.8417 0.964295 11.9997 1.31235 11.9997H16.5173L10.882 18.4366C10.76 18.576 10.6632 18.7415 10.5972 18.9237C10.5312 19.1059 10.4972 19.3012 10.4972 19.4984C10.4972 19.6956 10.5312 19.8908 10.5972 20.073C10.6632 20.2552 10.76 20.4207 10.882 20.5602C11.0041 20.6996 11.1489 20.8102 11.3083 20.8857C11.4678 20.9612 11.6386 21 11.8112 21C11.9837 21 12.1546 20.9612 12.314 20.8857C12.4735 20.8102 12.6183 20.6996 12.7403 20.5602L20.6144 11.5618C20.7367 11.4225 20.8336 11.257 20.8998 11.0748C20.9659 10.8926 21 10.6973 21 10.5C21 10.3027 20.9659 10.1074 20.8998 9.9252C20.8336 9.743 20.7367 9.5775 20.6144 9.43819L12.7403 0.439816C12.4939 0.158207 12.1597 0 11.8112 0C11.4627 0 11.1285 0.158207 10.882 0.439816C10.6356 0.721425 10.4972 1.10337 10.4972 1.50162C10.4972 1.89988 10.6356 2.28182 10.882 2.56343L16.5173 9.00027H1.31235C0.964295 9.00027 0.630492 9.15828 0.384378 9.43953C0.138264 9.72079 0 10.1022 0 10.5Z" fill="white"/>
</svg>
