<svg width="9" height="10" viewBox="0 0 9 10" fill="none" xmlns="http://www.w3.org/2000/svg">
<path d="M3.13329 5.76576C3.72079 5.76576 4.19163 6.24102 4.19163 6.83249V8.25244C4.19163 8.83975 3.72079 9.31876 3.13329 9.31876H1.72496C1.14163 9.31876 0.666626 8.83975 0.666626 8.25244V6.83249C0.666626 6.24102 1.14163 5.76576 1.72496 5.76576H3.13329ZM7.94167 5.76576C8.525 5.76576 9 6.24102 9 6.83249V8.25244C9 8.83975 8.525 9.31876 7.94167 9.31876H6.53333C5.94583 9.31876 5.475 8.83975 5.475 8.25244V6.83249C5.475 6.24102 5.94583 5.76576 6.53333 5.76576H7.94167ZM3.13329 0.988281C3.72079 0.988281 4.19163 1.46729 4.19163 2.05502V3.47497C4.19163 4.06644 3.72079 4.54128 3.13329 4.54128H1.72496C1.14163 4.54128 0.666626 4.06644 0.666626 3.47497V2.05502C0.666626 1.46729 1.14163 0.988281 1.72496 0.988281H3.13329ZM7.94167 0.988281C8.525 0.988281 9 1.46729 9 2.05502V3.47497C9 4.06644 8.525 4.54128 7.94167 4.54128H6.53333C5.94583 4.54128 5.475 4.06644 5.475 3.47497V2.05502C5.475 1.46729 5.94583 0.988281 6.53333 0.988281H7.94167Z" fill="#B4B4B4"/>
</svg>
